{"accessors":[{"bufferView":0,"byteOffset":0,"componentType":5126,"count":1270,"max":[156.56051635742188,7.457004070281982,199.7882080078125],"min":[-197.10231018066406,-31.13758659362793,-180.68385314941406],"type":"VEC3"},{"bufferView":0,"byteOffset":15240,"componentType":5126,"count":1270,"max":[0.9989007115364075,0.996427059173584,0.9841012358665466],"min":[-0.9992859363555908,-0.9997763633728027,-0.9965243339538574],"type":"VEC3"},{"bufferView":0,"byteOffset":30480,"componentType":5126,"count":1270,"max":[0.9602870941162109,0.7393223643302917],"min":[0.010779595002532005,0.0021157264709472656],"type":"VEC2"},{"bufferView":1,"byteOffset":0,"componentType":5123,"count":2232,"max":[1269],"min":[0],"type":"SCALAR"}],"asset":{"generator":"ClayGL - fbx2gltf","version":"2.0"},"bufferViews":[{"buffer":0,"byteLength":40640,"byteOffset":0,"target":34962},{"buffer":0,"byteLength":4464,"byteOffset":40640,"target":34963}],"buffers":[{"byteLength":45104,"uri":"rocks.bin"}],"images":[{"uri":"textures/badside_rocks001.png"}],"materials":[{"emissiveFactor":[0.0,0.0,0.0],"name":"Material #35","pbrMetallicRoughness":{"baseColorFactor":[1,1,1,1],"baseColorTexture":{"index":0,"texCoord":0},"metallicFactor":0,"roughnessFactor":0.9230769230769231}}],"meshes":[{"name":"badside_rocks006_model","primitives":[{"attributes":{"NORMAL":1,"POSITION":0,"TEXCOORD_0":2},"indices":3,"material":0}]}],"nodes":[{"matrix":[1.0,0.0,0.0,0.0,0.0,1.0,4.371138850878258e-08,0.0,0.0,-4.371138850878258e-08,1.0,0.0,0.0,0.0,0.0,1.0],"name":"static_prop"},{"matrix":[1.0,0.0,0.0,0.0,0.0,-1.0,4.371138840920265e-08,0.0,0.0,-4.371138840920265e-08,-1.0,0.0,-4.968023858964443e-07,-18.680622100830078,11.365511894226074,1.0],"mesh":0,"name":"badside_rocks006_model"}],"samplers":[{"magFilter":9729,"minFilter":9987,"wrapS":10497,"wrapT":10497}],"scene":0,"scenes":[{"nodes":[0,1]}],"textures":[{"format":6408,"internalFormat":6408,"sampler":0,"source":0,"target":3553}]}